<svg width="19" height="20" viewBox="0 0 19 20" fill="none" xmlns="http://www.w3.org/2000/svg">
<path fill-rule="evenodd" clip-rule="evenodd" d="M2.50182 2.74305C0.978588 4.18121 1.19209e-07 6.49552 0 10.0651C-1.19209e-07 13.5624 0.974462 15.8441 2.49688 17.2686C4.03728 18.7099 6.37938 19.5 9.56833 19.5C12.8324 19.5 15.1265 18.7069 16.6079 17.2826C18.0785 15.8688 19 13.59 19 10.0651C19 6.46825 18.0748 4.15676 16.6031 2.72898C15.1229 1.29301 12.8323 0.5 9.56833 0.5C6.37941 0.5 4.04078 1.29002 2.50182 2.74305ZM10.25 5.25V3.25H8.75L8.75 5.25H8C6.61929 5.25 5.5 6.36929 5.5 7.75V12.25C5.5 13.6307 6.61929 14.75 8 14.75H11C12.3807 14.75 13.5 13.6307 13.5 12.25V11.75H12V12.25C12 12.8023 11.5523 13.25 11 13.25H8C7.44772 13.25 7 12.8023 7 12.25V7.75C7 7.19772 7.44772 6.75 8 6.75H11C11.5523 6.75 12 7.19772 12 7.75V8.25H13.5V7.75C13.5 6.36929 12.3807 5.25 11 5.25H10.25ZM8.75 16.755V14.755H10.25V16.755H8.75Z" fill="#E02B57"/>
</svg>
